<svg id="Icons" height="512" viewBox="0 0 60 60" width="512" xmlns="http://www.w3.org/2000/svg"><path d="m52 43v14a2.006 2.006 0 0 1 -2 2h-40a2.006 2.006 0 0 1 -2-2v-14l1-1h42z" fill="#ef6d3f"/><path d="m52 14v29h-44v-40a2.006 2.006 0 0 1 2-2h29a1.275 1.275 0 0 1 .2.01 4.511 4.511 0 0 1 3.2 1.39l8.2 8.2a4.511 4.511 0 0 1 1.39 3.2 1.275 1.275 0 0 1 .01.2z" fill="#e8edf3"/><path d="m51.99 13.8a2.006 2.006 0 0 0 -1.99-1.8h-6a3 3 0 0 1 -3-3v-6a2.006 2.006 0 0 0 -1.8-1.99 4.511 4.511 0 0 1 3.2 1.39l8.2 8.2a4.511 4.511 0 0 1 1.39 3.2z" fill="#bfcedd"/><path d="m28 19h-15a1 1 0 0 0 0 2h7.53c-3.453 2.606-4.53 7.165-4.53 10h2c0-.409.134-10 9-10h1a1 1 0 0 0 0-2z" fill="#b74d2c"/><path d="m47 19h-15a1 1 0 0 0 0 2h1c8.866 0 9 9.593 9 10h2c0-2.835-1.077-7.394-4.53-10h7.53a1 1 0 0 0 0-2z" fill="#b74d2c"/><path d="m39 50a1 1 0 1 1 .867-1.5 1 1 0 0 0 1.731-1 3 3 0 1 0 -2.598 4.5 1 1 0 1 1 -.867 1.5 1 1 0 0 0 -1.731 1 3 3 0 1 0 2.598-4.5z" fill="#fff"/><path d="m31 46h-3a1 1 0 0 0 -1 1v8a1 1 0 0 0 2 0v-3h2a3 3 0 0 0 0-6zm0 4h-2v-2h2a1 1 0 0 1 0 2z" fill="#fff"/><path d="m24 48a1 1 0 0 0 0-2h-5a1 1 0 0 0 -1 1v8a1 1 0 0 0 1 1h5a1 1 0 0 0 0-2h-4v-2h2a1 1 0 0 0 0-2h-2v-2z" fill="#fff"/><g fill="#ef6d3f"><rect height="6" rx="2" width="6" x="14" y="30"/><rect height="6" rx="2" width="6" x="27" y="17"/><rect height="6" rx="2" width="6" x="40" y="30"/></g></svg>