<svg id="Layer_1" enable-background="new 0 0 512 512" viewBox="0 0 512 512" xmlns="http://www.w3.org/2000/svg"><g><g clip-rule="evenodd" fill-rule="evenodd"><path d="m187.56 54.45h259.13c17.67 0 32.13 14.45 32.13 32.13v393.29c0 17.67-14.45 32.13-32.13 32.13h-259.13c-17.67 0-32.13-14.45-32.13-32.13v-393.29c0-17.67 14.46-32.13 32.13-32.13z" fill="#ccf"/><path d="m133.08 0h160.38c3.16 0 5.88 1.11 8.11 3.36l122.78 122.78v299.28c0 17.64-14.45 32.1-32.1 32.1h-259.17c-17.64 0-32.1-14.45-32.1-32.1v-393.32c0-17.65 14.45-32.1 32.1-32.1z" fill="#edf4fb"/><path d="m298.19.99c1.23.56 2.34 1.35 3.36 2.37l122.78 122.78h-126.14z" fill="#a7b0b7"/><path d="m54.1 202.01h274.93c11.5 0 20.92 9.42 20.92 20.92v137.79c0 11.5-9.42 20.92-20.92 20.92h-274.93c-11.53 0-20.92-9.42-20.92-20.92v-137.78c0-11.5 9.39-20.93 20.92-20.93z" fill="#0593fc"/></g><path d="m110.9 239c9.3 0 17.79 3.8 23.91 9.92 6.14 6.14 9.95 14.6 9.95 23.94v37.95c0 9.3-3.8 17.79-9.95 23.91-6.12 6.14-14.6 9.95-23.91 9.95-9.33 0-17.79-3.8-23.94-9.95-6.14-6.12-9.95-14.6-9.95-23.91v-37.95c0-9.33 3.8-17.79 9.95-23.94 6.15-6.12 14.6-9.92 23.94-9.92zm143.99 44.56h42.95c4.56 0 8.28 3.72 8.28 8.25 0 4.56-3.72 8.28-8.28 8.28h-42.95v36.31c0 4.56-3.69 8.25-8.25 8.25s-8.25-3.69-8.25-8.25v-89.16c0-4.56 3.69-8.25 8.25-8.25h51.21c4.56 0 8.28 3.69 8.28 8.25s-3.72 8.25-8.28 8.25h-42.95v28.07zm-88.92-44.56h25.6c9.3 0 17.79 3.8 23.91 9.92 6.14 6.14 9.95 14.6 9.95 23.94v37.95c0 9.3-3.8 17.79-9.95 23.91-6.12 6.14-14.6 9.95-23.91 9.95h-25.6c-4.56 0-8.28-3.69-8.28-8.25v-89.16c-.01-4.57 3.71-8.26 8.28-8.26zm25.6 16.5h-17.35v72.65h17.35c4.77 0 9.1-1.96 12.23-5.12 3.16-3.13 5.12-7.46 5.12-12.23v-37.95c0-4.77-1.96-9.1-5.12-12.26-3.13-3.13-7.46-5.09-12.23-5.09zm-80.67 0c-4.77 0-9.1 1.96-12.26 5.09-3.16 3.16-5.09 7.49-5.09 12.26v37.95c0 4.77 1.93 9.1 5.09 12.23 3.16 3.16 7.49 5.12 12.26 5.12 4.74 0 9.1-1.96 12.23-5.12 3.16-3.13 5.09-7.46 5.09-12.23v-37.95c0-4.77-1.93-9.1-5.09-12.26-3.16-3.13-7.49-5.09-12.23-5.09z" fill="#fff"/></g></svg>