<svg enable-background="new 0 0 512 512" height="512" viewBox="0 0 512 512" width="512" xmlns="http://www.w3.org/2000/svg"><g id="_x36_1_x2C__Odc_x2C__fromat_x2C__type_x2C__archive_x2C__file_x2C__file_and_folder"><g><g><g><path d="m1 461v-460h300v460c-9.259 0-293.52 0-300 0z" fill="#32a7ff"/><path d="m401 511h-350v-460h274.143l31.357 50 44.5 25.858z" fill="#fbf3f3"/><path d="m511 431h-400v-180h400z" fill="#32a7ff"/><g fill="#ece6f2"><path d="m111 101h170v20h-170z"/><path d="m111 151h170v20h-170z"/><path d="m111 201h240v20h-240z"/><path d="m325.143 51v75.858h75.857z"/></g><path d="m411 371c-16.542 0-30-13.458-30-30s13.458-30 30-30c5.268 0 10.455 1.387 15.001 4.011l9.997-17.322c-7.581-4.376-16.226-6.689-24.998-6.689-27.57 0-50 22.43-50 50s22.43 50 50 50c8.772 0 17.417-2.313 24.999-6.688l-9.997-17.322c-4.547 2.623-9.734 4.01-15.002 4.01z" fill="#fff"/><path d="m291 291h-20v100h20c27.57 0 50-22.43 50-50s-22.43-50-50-50zm0 80v-60c16.542 0 30 13.458 30 30s-13.458 30-30 30z" fill="#fff"/><path d="m216 291c-19.299 0-35 15.701-35 35v30c0 19.299 15.701 35 35 35s35-15.701 35-35v-30c0-19.299-15.701-35-35-35zm15 65c0 8.271-6.729 15-15 15s-15-6.729-15-15v-30c0-8.271 6.729-15 15-15s15 6.729 15 15z" fill="#fff"/></g></g></g></g></svg>