<svg height="512" viewBox="0 0 408.1 512" width="512" xmlns="http://www.w3.org/2000/svg"><g id="Layer_2" data-name="Layer 2"><g id="OpenOffice_Impress_presentation_file" data-name="OpenOffice Impress presentation file"><path d="m52.84 375.71v52h-26.84a26 26 0 0 1 -26-26.15 23.59 23.59 0 0 1 .14-2.56 26 26 0 0 1 25.86-23.29z" fill="#0081a3"/><path d="m107 241.86a41.87 41.87 0 1 1 -41.87 41.87 41.88 41.88 0 0 1 41.87-41.87z" fill="#00b7e2"/><path d="m214.47 241.86c22.28 0 33.81 18.79 33.81 41.87s-12.8 41.33-33.13 41.69c-6.76.12-24.23.18-24.23.18s-.12-30.34-.12-42c0-9.24-.06-39.73-.06-41.69v-.09z" fill="#00b7e2"/><path d="m318.74 241.86c13.05 0 24.09 10.58 24.09 23.63s-11 23.63-24.09 23.63c-6.47 0-23.15.11-23.15.11s-.11-17.16-.11-23.74c0-5.4-.06-23.63-.06-23.63z" fill="#00b7e2"/><path d="m295.48 265.49c0 6.58.11 23.74.11 23.74s16.68-.11 23.15-.11c13.05 0 24.09-10.58 24.09-23.63s-11-23.63-24.09-23.63h-23.32s.06 18.23.06 23.63zm-104.68 18.15c0 11.62.12 42 .12 42s17.47-.06 24.23-.18c20.33-.36 33.13-18.62 33.13-41.69s-11.53-41.87-33.81-41.87h-23.73v.1c0 1.91.06 32.4.06 41.64zm217.3 82.36v9.62l-334.82.08h-47.28a26 26 0 0 0 -25.86 23.3l.44-183.49a26 26 0 0 1 26-26h26.26l355.26-.07zm-259.22-82.27a41.88 41.88 0 1 0 -41.88 41.87 41.88 41.88 0 0 0 41.88-41.87z" fill="#00b7e2"/><path d="m408.1 375.63v84.13a52.24 52.24 0 0 1 -52.24 52.24h-250.77a52.24 52.24 0 0 1 -52.25-52.24v-84.05h20.44z" fill="#e7e7e9"/><path d="m314.08 2.37a31.19 31.19 0 0 1 8.92 5.55l74.6 66.32a31.35 31.35 0 0 1 10 17.92h-62.2a31.34 31.34 0 0 1 -31.34-31.34v-58.45z" fill="#a3a2a3"/><path d="m302.14 0a31.13 31.13 0 0 1 11.94 2.37v58.45a31.34 31.34 0 0 0 31.34 31.34h62.2a30.49 30.49 0 0 1 .49 5.5v91.79l-355.26.07v-126.83a62.69 62.69 0 0 1 62.68-62.69z" fill="#e7e7e9"/><g fill="#fff"><path d="m190.74 334.65a10.41 10.41 0 0 1 -10.41-10.4v-82.25a10.41 10.41 0 0 1 20.82 0v82.3a10.41 10.41 0 0 1 -10.41 10.35z"/><path d="m190.92 336a10.41 10.41 0 0 1 -10.41-10.37c0-.31-.11-30.49-.11-42 0-6.33 0-22.61-.05-32.88 0-4.73 0-8.19 0-8.81a10.49 10.49 0 0 1 10.41-10.5h23.73c26.45 0 44.22 21 44.22 52.28 0 29.74-18.23 51.65-43.35 52.1-6.76.11-23.67.17-24.38.18zm10.24-83.75c0 10.3.05 25.35.05 31.38 0 7.16 0 21.59.08 31.5 5 0 10.54-.07 13.69-.12 15.81-.29 22.89-15.92 22.89-31.29 0-15.21-6.15-31.47-23.4-31.47z"/><path d="m295.42 336a10.41 10.41 0 0 1 -10.42-10.4v-83.74a10.41 10.41 0 1 1 20.82 0v83.74a10.41 10.41 0 0 1 -10.4 10.4z"/><path d="m295.59 299.63a10.4 10.4 0 0 1 -10.41-10.34c0-.17-.1-17.27-.1-23.8 0-5.39-.07-23.59-.07-23.6a10.41 10.41 0 0 1 10.41-10.44h23.32c19 0 34.5 15.27 34.5 34s-15.48 34-34.5 34c-6.36 0-22.92.1-23.09.1zm10.27-47.37v13.23c0 3 0 8.41.05 13.27h12.8c7.42 0 13.69-6.06 13.69-13.23s-6.27-13.23-13.69-13.23z"/><path d="m107 336a52.28 52.28 0 1 1 52.28-52.28 52.33 52.33 0 0 1 -52.28 52.28zm0-83.75a31.47 31.47 0 1 0 31.47 31.47 31.5 31.5 0 0 0 -31.47-31.46z"/></g></g></g></svg>