<svg id="Capa_1" enable-background="new 0 0 512 512" height="512" viewBox="0 0 512 512" width="512" xmlns="http://www.w3.org/2000/svg"><g><path d="m107.355 322.931h-54.237c-13.682 0-28.344-7.493-28.344-33.899 0-13.682 11.092-24.774 24.774-24.774h57.806v58.673z" fill="#ff744d"/><path d="m470.71 0h-338.581c-4.561 0-8.258 3.697-8.258 8.258v462.256h355.097v-462.256z" fill="#ff8b57"/><path d="m478.968 0h-8.258v412.903c0 27.365-22.183 49.548-49.548 49.548v16.516h57.806c4.561 0 8.258-3.698 8.258-8.258v-462.451c0-4.561-3.697-8.258-8.258-8.258z" fill="#ff744d"/><path d="m363.355 33.032h-264.258c-4.561 0-8.258 3.697-8.258 8.258v405.441l7.89 15.747-7.89 16.49v24.774c0 4.561 3.697 8.258 8.258 8.258h8.258l16.459-7.49h322.859v-382.056z" fill="#eceaec"/><path d="m371.613 478.968h-280.774v-148.645h280.774c9.122 0 16.516 7.395 16.516 16.516v115.613c0 9.121-7.395 16.516-16.516 16.516z" fill="#dbd8db"/><path d="m355.097 313.806h-305.549c-13.682 0-24.774-11.092-24.774-24.774v148.645c0 13.682 11.092 24.774 24.774 24.774l17.904-8.326h296.47v-130.76z" fill="#ff8b57"/><path d="m449.356 110.775-72.905-72.905c-3.098-3.097-7.298-4.837-11.679-4.837h-1.417v74.323c0 9.122 7.395 16.516 16.516 16.516h49.548c4.561 0 8.258 3.697 8.258 8.258v313.806c0 27.365-22.184 49.548-49.548 49.548h-264.258c-9.122 0-16.516 7.395-16.516 16.516h338.581c4.561 0 8.258-3.697 8.258-8.258v-381.288c0-4.381-1.741-8.582-4.838-11.679z" fill="#dbd8db"/><path d="m355.097 313.806v99.097c0 18.243-14.789 33.032-33.032 33.032h-256c-9.122 0-16.516 7.395-16.516 16.516h305.548c9.122 0 16.516-7.395 16.516-16.516v-115.612c0-9.122-7.395-16.517-16.516-16.517z" fill="#ff744d"/><path d="m280.774 141.018v48.918c0 4.561-3.697 8.258-8.258 8.258h-48.918c-4.964 0-8.932 4.373-8.241 9.288 2.073 14.731 9.003 27.901 19.12 37.84 0 0 23.018 20.267 59.289 15.054 25.974-3.733 41.273-24.318 47.348-49.846 10.208-42.896-30.61-71.35-30.61-71.35-6.302-3.181-13.183-5.383-20.442-6.404-4.915-.691-9.288 3.278-9.288 8.242z" fill="#ff8b57"/><path d="m198.911 165.161h40.573c4.561 0 8.258-3.697 8.258-8.258v-40.573c0-5.002-4.442-9.024-9.379-8.219-24.413 3.983-43.688 23.258-47.671 47.671-.805 4.937 3.218 9.379 8.219 9.379z" fill="#ff8b57"/><g fill="#fff"><path d="m70.395 409.286h-.081c-4.565 0-8.218 3.698-8.218 8.258s3.734 8.258 8.298 8.258c4.565 0 8.258-3.698 8.258-8.258s-3.692-8.258-8.257-8.258z"/><path d="m332.484 412.794-18.652-26.515 15.749-22.356c2.629-3.726 1.734-8.879-1.992-11.504-3.75-2.629-8.887-1.738-11.508 1.996l-12.341 17.519-12.321-17.515c-2.629-3.726-7.774-4.633-11.508-2.004-3.734 2.625-4.629 7.774-2.008 11.504l15.73 22.361-18.674 26.51c-2.629 3.726-1.734 8.879 1.992 11.504 1.452 1.02 3.105 1.508 4.75 1.508 2.597 0 5.153-1.218 6.758-3.504l15.266-21.671 15.242 21.667c1.613 2.286 4.169 3.508 6.766 3.508 1.637 0 3.298-.488 4.742-1.504 3.735-2.625 4.63-7.774 2.009-11.504z"/><path d="m255.258 350.911h-32.242c-4.565 0-8.258 3.698-8.258 8.258s3.694 8.258 8.258 8.258h7.798v50.117c0 4.56 3.694 8.258 8.258 8.258s8.258-3.698 8.258-8.258v-50.117h7.927c4.564 0 8.258-3.698 8.258-8.258s-3.692-8.258-8.257-8.258z"/><path d="m118.274 350.778h-16.29c-4.565 0-8.258 3.698-8.258 8.258v58.508c0 4.56 3.694 8.258 8.258 8.258s8.258-3.698 8.258-8.258v-17.202c3.011-.015 6.142-.028 8.032-.028 13.831 0 25.089-11.109 25.089-24.766s-11.258-24.77-25.089-24.77zm0 33.02c-1.155 0-4.743.004-8.032.012v-16.516h8.032c4.645 0 8.573 3.778 8.573 8.254 0 4.472-3.928 8.25-8.573 8.25z"/><path d="m180.976 350.778h-16.29c-4.565 0-8.258 3.698-8.258 8.258v58.508c0 4.56 3.694 8.258 8.258 8.258s8.258-3.698 8.258-8.258v-17.202c3.011-.015 6.142-.028 8.032-.028 13.831 0 25.089-11.109 25.089-24.766s-11.259-24.77-25.089-24.77zm0 33.02c-1.155 0-4.743.004-8.032.012v-16.516h8.032c4.645 0 8.573 3.778 8.573 8.254-.001 4.472-3.928 8.25-8.573 8.25z"/></g><path d="m310.505 139.181c15.081 14.801 23.492 36.982 18.902 60.608-5.005 25.759-25.762 46.517-51.521 51.521-15.737 3.057-30.767.503-43.408-5.988 14.785 14.521 36.381 22.148 59.551 17.646 25.759-5.005 46.516-25.762 51.521-51.521 6.033-31.057-10.094-59.465-35.045-72.266z" fill="#ff744d"/></g></svg>