<svg width="756" height="24" viewBox="0 0 756 24" fill="none" xmlns="http://www.w3.org/2000/svg">
<path fill-rule="evenodd" clip-rule="evenodd" d="M321.375 2.82125C285.936 3.54678 250.913 4.4389 216.76 5.41421C168.413 6.79392 120.084 8.22122 72.0466 10.4811C56.9254 11.1947 41.5698 11.6467 26.5432 12.5387C17.1104 13.0978 4.6028 13.8945 2.96133 14.0611C2.10278 14.1562 1.72822 14.2991 1.60719 14.3467C0.756202 14.6797 0.911477 15.0007 1.39181 15.2505C1.5847 15.3575 2.07247 15.6193 3.42649 15.655C93.9794 18.0932 186.575 13.3356 277.237 12.8361C434.463 11.9797 596.453 15.3814 752.43 22.8033C753.792 22.8628 755.116 22.5653 755.305 22.1253C755.532 21.6971 754.549 21.2808 753.187 21.2213C596.945 13.7875 434.689 10.3739 277.162 11.2422C192.668 11.706 106.506 15.8809 21.8949 14.4537C23.8389 14.3347 25.7452 14.2157 27.485 14.1087C42.4511 13.2166 57.7424 12.7766 72.8031 12.0629C120.738 9.80307 168.969 8.37579 217.252 7.00797C277.162 5.29523 339.681 3.82036 402.692 3.1305C425.234 3.23755 447.7 3.34464 470.166 3.47548C518.767 3.76093 567.595 4.59352 616.083 5.71156C630.682 6.05649 645.281 6.41328 659.88 6.72253C664.722 6.82957 677.203 7.13877 678.943 7.11498C681.099 7.09119 681.514 6.52033 681.552 6.42518C681.666 6.21108 681.59 5.91372 680.531 5.66394C680.417 5.62826 679.737 5.50924 678.224 5.43788C590.061 1.22739 495.923 0.525747 402.768 1.53674C304.507 1.09666 205.868 0.90627 107.856 0.704071C106.453 0.704071 105.307 1.06094 105.296 1.50102C105.288 1.9411 106.419 2.29799 107.822 2.30988C178.791 2.45261 250.119 2.59526 321.375 2.82125Z" fill="#5956E9" stroke="#6865FF"/>
</svg>
